<?xml version="1.0" encoding="UTF-8" standalone="no"?>
<svg
   version="1.1"
   x="0px"
   y="0px"
   viewBox="0 0 9536.2002 10017.282"
   enable-background="new 0 0 100 100"
   xml:space="preserve"
   id="svg4"
   sodipodi:docname="noun-lego-brick.svg"
   inkscape:version="1.3.2 (091e20e, 2023-11-25)"
   width="9536.2002"
   height="10017.282"
   xmlns:inkscape="http://www.inkscape.org/namespaces/inkscape"
   xmlns:sodipodi="http://sodipodi.sourceforge.net/DTD/sodipodi-0.dtd"
   xmlns="http://www.w3.org/2000/svg"
   xmlns:svg="http://www.w3.org/2000/svg"><defs
     id="defs4" /><sodipodi:namedview
     id="namedview4"
     pagecolor="#ffffff"
     bordercolor="#000000"
     borderopacity="0.25"
     inkscape:showpageshadow="2"
     inkscape:pageopacity="0.0"
     inkscape:pagecheckerboard="0"
     inkscape:deskcolor="#d1d1d1"
     inkscape:zoom="1.888"
     inkscape:cx="49.788136"
     inkscape:cy="66.207627"
     inkscape:window-width="1312"
     inkscape:window-height="449"
     inkscape:window-x="0"
     inkscape:window-y="38"
     inkscape:window-maximized="0"
     inkscape:current-layer="svg4" /><path
     fill="#000000"
     d="m -166.07199,-1243.7818 0.284,1.247 c 0.005,0.02 0.021,0.031 0.03,0.048 0.007,0.013 0.001,0.029 0.01,0.041 l 0.81,1.138 c 0.007,0.01 0.022,0.01 0.03,0.016 0.011,0.012 0.01,0.03 0.023,0.04 l 1.312,0.984 c 0.01,0.01 0.021,0.01 0.032,0.011 0.007,0 0.009,0.014 0.017,0.018 l 1.728,0.766 c 0.012,0.01 0.023,0 0.035,0.01 0.005,10e-4 0.006,0.01 0.011,0.01 l 2.013,0.459 c 0.011,0 0.021,0 0.032,0 0.001,0 0.002,0 0.003,0 l 2.144,0.175 c 0.007,0 0.014,10e-4 0.021,10e-4 0.007,0 0.014,0 0.021,-10e-4 l 2.122,-0.175 c 0.001,0 0.002,-10e-4 0.003,-0 0.012,-10e-4 0.022,-10e-4 0.033,-0 l 1.969,-0.459 c 0.005,-0 0.006,-0.01 0.011,-0.01 0.012,-0 0.023,-0 0.034,-0.01 l 1.729,-0.766 c 0.008,-0 0.01,-0.014 0.017,-0.018 0.011,-0.01 0.022,-0 0.032,-0.011 l 1.312,-0.984 c 0.014,-0.01 0.013,-0.028 0.023,-0.04 0.008,-0.01 0.023,-0.01 0.03,-0.016 l 0.809,-1.138 c 0.009,-0.012 0.003,-0.028 0.01,-0.042 0.009,-0.017 0.025,-0.028 0.03,-0.048 l 0.285,-1.247 c 0.002,-0.011 -0.006,-0.019 -0.005,-0.029 0.001,-0.01 0.011,-0.016 0.011,-0.026 v -4.024 c 0,-0.01 -0.01,-0.017 -0.011,-0.026 -0.001,-0.01 0.007,-0.019 0.005,-0.029 l -0.285,-1.247 c -0.004,-0.017 -0.021,-0.024 -0.028,-0.04 -0.007,-0.016 -0.001,-0.033 -0.011,-0.047 l -0.809,-1.159 c -0.008,-0.012 -0.023,-0.011 -0.033,-0.021 -0.01,-0.01 -0.01,-0.027 -0.021,-0.036 l -1.312,-0.984 c -0.009,-0.01 -0.02,-0 -0.029,-0.01 -0.008,-0.01 -0.01,-0.017 -0.02,-0.021 l -1.729,-0.766 c -0.008,-0 -0.017,0 -0.024,0 -0.009,-0 -0.012,-0.013 -0.021,-0.015 l -1.969,-0.46 c -0.007,-10e-4 -0.013,0 -0.02,0 -0.006,-10e-4 -0.01,-0.01 -0.017,-0.01 l -2.122,-0.175 c -0.008,-0 -0.013,0.01 -0.021,0.01 -0.008,0 -0.013,-0.01 -0.021,-0.01 l -2.144,0.175 c -0.007,0 -0.01,0.01 -0.017,0.01 -0.007,10e-4 -0.012,-0.01 -0.019,-0 l -2.013,0.46 c -0.009,0 -0.012,0.012 -0.021,0.015 -0.009,0 -0.017,-0 -0.025,0 l -1.728,0.766 c -0.01,0 -0.012,0.016 -0.02,0.021 -0.01,0 -0.021,10e-4 -0.029,0.01 l -1.309,0.982 c -0.012,0.01 -0.012,0.025 -0.021,0.036 -0.009,0.011 -0.025,0.01 -0.033,0.021 l -0.81,1.159 c -0.011,0.015 -0.004,0.033 -0.011,0.048 -0.007,0.015 -0.024,0.022 -0.028,0.039 l -0.284,1.2469 c -0.002,0.011 0.006,0.019 0.005,0.029 -0.001,0.01 -0.011,0.016 -0.011,0.026 v 4.024 c 0,0.01 0.01,0.017 0.011,0.026 0,0.012 -0.008,0.021 -0.006,0.032 z m 1.52,-6.31 1.26,-0.944 1.679,-0.744 1.972,-0.451 2.104,-0.171 2.081,0.171 1.931,0.451 1.679,0.744 1.26,0.944 0.757,1.085 0.262,1.146 -0.261,1.119 -0.758,1.087 -1.256,0.921 -1.686,0.747 -1.924,0.471 -2.085,0.149 -2.105,-0.149 -1.971,-0.472 -1.683,-0.746 -1.256,-0.921 -0.759,-1.087 -0.26,-1.119 0.261,-1.146 z"
     id="path1" /><path
     fill="#000000"
     d="m -147.36999,-1233.0058 0.24,1.226 c 0.004,0.021 0.021,0.032 0.03,0.051 0.007,0.015 0.001,0.032 0.011,0.046 l 0.81,1.139 c 0.008,0.01 0.021,0.01 0.03,0.016 0.011,0.012 0.011,0.029 0.023,0.039 l 1.312,0.984 c 0.01,0.01 0.021,0 0.032,0.011 0.008,0 0.009,0.015 0.017,0.018 l 1.728,0.766 c 0.01,0.01 0.021,0 0.031,0.01 0.004,10e-4 0.005,0.01 0.01,0.01 l 2.013,0.5019 c 0.014,0 0.027,0 0.041,0.01 0.002,0 0.003,0 0.004,0 l 2.144,0.1309 c 0.006,0 0.011,0 0.016,0 0.005,0 0.01,0 0.016,0 l 2.122,-0.1309 c 0.002,0 0.003,-0 0.004,-0 0.015,-0 0.028,-0 0.042,-0.01 l 1.969,-0.503 c 0.004,-10e-4 0.006,-0.01 0.01,-0.01 0.01,-0 0.021,-0 0.03,-0.01 l 1.729,-0.766 c 0.008,-0 0.009,-0.014 0.017,-0.018 0.011,-0.01 0.022,-0 0.032,-0.011 l 1.312,-0.984 c 0.013,-0.01 0.013,-0.027 0.023,-0.039 0.009,-0.01 0.022,-0.01 0.03,-0.016 l 0.81,-1.139 c 0.009,-0.012 0.003,-0.026 0.009,-0.039 0.009,-0.017 0.024,-0.026 0.029,-0.045 l 0.306,-1.2259 c 0.003,-0.011 -0.006,-0.021 -0.005,-0.03 0.002,-0.012 0.013,-0.019 0.013,-0.03 v -4.047 c 0,-0.012 -0.011,-0.019 -0.013,-0.03 -0.001,-0.011 0.008,-0.02 0.005,-0.031 l -0.306,-1.225 c -0.004,-0.016 -0.021,-0.022 -0.027,-0.037 -0.006,-0.015 0,-0.032 -0.01,-0.045 l -0.81,-1.159 c -0.009,-0.012 -0.023,-0.011 -0.033,-0.021 -0.011,-0.01 -0.01,-0.027 -0.021,-0.036 l -1.314,-0.985 c -0.009,-0.01 -0.02,-0 -0.028,-0.01 -0.01,-0.01 -0.011,-0.017 -0.021,-0.021 l -1.729,-0.766 c -0.008,-0 -0.017,0 -0.024,0 -0.009,-0 -0.012,-0.013 -0.021,-0.015 l -1.969,-0.46 c -0.007,-10e-4 -0.013,0 -0.02,0 -0.007,-0 -0.01,-0.01 -0.017,-0.01 l -2.122,-0.175 c -0.008,0 -0.013,0.01 -0.021,0.01 -0.008,0 -0.013,-0.01 -0.021,-0.01 l -2.144,0.175 c -0.007,0 -0.01,0.01 -0.017,0.01 -0.007,9e-4 -0.012,-0.01 -0.019,-0 l -2.013,0.46 c -0.009,0 -0.012,0.012 -0.021,0.015 -0.009,0 -0.018,-0 -0.025,0 l -1.728,0.766 c -0.01,0 -0.011,0.016 -0.021,0.021 -0.009,0 -0.02,10e-4 -0.028,0.01 l -1.312,0.9841 c -0.012,0.01 -0.011,0.025 -0.021,0.036 -0.01,0.01 -0.024,0.01 -0.033,0.021 l -0.805,1.159 c -0.011,0.015 -0.004,0.034 -0.012,0.051 -0.007,0.017 -0.024,0.026 -0.028,0.044 l -0.24,1.225 c -0.002,0.01 0.006,0.016 0.005,0.025 -0.001,0.01 -0.01,0.014 -0.01,0.023 v 4.047 c 0,0.01 0.009,0.015 0.01,0.023 0.001,0.01 -0.008,0.016 -0.006,0.025 z m 1.477,-6.302 1.26,-0.944 1.679,-0.744 1.971,-0.451 2.105,-0.1709 2.081,0.1709 1.931,0.451 1.679,0.744 1.26,0.944 0.761,1.089 0.279,1.118 -0.279,1.119 -0.761,1.089 -1.259,0.944 -1.68,0.724 -1.927,0.47 -2.085,0.15 -2.106,-0.15 -1.972,-0.471 -1.678,-0.723 -1.259,-0.944 -0.757,-1.083 -0.22,-1.125 0.22,-1.124 z"
     id="path2" /><path
     fill="#000000"
     d="m -195.92099,-1254.6218 v 24.26 c 0,0.357 0.19,0.688 0.5,0.866 l 56.043,32.331 c 0.155,0.089 0.327,0.1341 0.5,0.1341 0.173,0 0.346,-0.045 0.5,-0.1341 l 37.319,-21.547 c 0.31,-0.179 0.5,-0.509 0.5,-0.866 v -24.26 c 0,-0.357 -0.19,-0.688 -0.5,-0.866 l -55.978,-32.33 c -0.311,-0.1799 -0.689,-0.1799 -0.998,-0 l -37.386,21.547 c -0.309,0.1791 -0.5,0.509 -0.5,0.867 z m 2,23.682 v -22.817 l 54.793,31.631 v 22.795 z m 15.578,-32.054 2.081,-0.171 2.104,0.171 1.972,0.451 1.679,0.744 1.26,0.944 0.758,1.065 0.261,1.143 -0.259,1.118 -0.76,1.067 -1.26,0.944 -1.68,0.745 -1.969,0.47 -2.106,0.15 -2.085,-0.15 -1.924,-0.47 -1.682,-0.745 -1.26,-0.944 -0.759,-1.067 -0.26,-1.118 0.261,-1.14 5.51,-3.18 z m -6.389,4.291 c -0.002,0.011 0.006,0.019 0.005,0.029 -0.001,0.01 -0.011,0.016 -0.011,0.026 v 4.025 c 0,0.01 0.01,0.017 0.011,0.026 0.001,0.01 -0.007,0.019 -0.005,0.029 l 0.285,1.247 c 0.005,0.02 0.021,0.031 0.03,0.048 0.007,0.014 0.001,0.029 0.01,0.042 l 0.809,1.138 c 0.007,0.01 0.022,0.01 0.03,0.016 0.011,0.012 0.01,0.03 0.023,0.04 l 1.312,0.984 c 0.01,0.01 0.021,0 0.032,0.011 0.007,0 0.009,0.014 0.017,0.018 l 1.729,0.766 c 0.011,0.01 0.022,0 0.034,0.01 0.005,0 0.006,0.01 0.011,0.01 l 1.969,0.4589 c 0.011,0 0.021,0 0.033,0 0.001,0 0.002,0 0.003,0 l 2.122,0.175 c 0.007,0 0.014,0 0.021,0 0.007,0 0.014,0 0.021,-0 l 2.144,-0.175 c 0.001,0 0.002,-0 0.003,-0 0.011,-0 0.021,-0 0.032,-0 l 2.013,-0.4589 c 0.005,-0 0.006,-0.01 0.011,-0.01 0.012,-0 0.023,-0 0.035,-0.01 l 1.728,-0.766 c 0.008,-0 0.01,-0.014 0.017,-0.018 0.011,-0.01 0.022,-0 0.032,-0.011 l 1.312,-0.984 c 0.014,-0.01 0.013,-0.028 0.023,-0.04 0.008,-0.01 0.023,-0 0.03,-0.016 l 0.81,-1.138 c 0.009,-0.012 0.003,-0.028 0.01,-0.041 0.009,-0.018 0.025,-0.028 0.03,-0.048 l 0.284,-1.2471 c 0.002,-0.011 -0.006,-0.019 -0.005,-0.029 0.001,-0.01 0.011,-0.016 0.011,-0.026 v -4.0249 c 0,-0.01 -0.01,-0.017 -0.011,-0.026 -0.001,-0.01 0.007,-0.019 0.005,-0.029 l -0.284,-1.246 c -0.004,-0.018 -0.021,-0.025 -0.029,-0.041 -0.007,-0.016 0,-0.034 -0.011,-0.048 l -0.81,-1.138 c -0.009,-0.011 -0.023,-0.011 -0.033,-0.021 -0.01,-0.01 -0.009,-0.025 -0.021,-0.034 l -1.312,-0.9839 c -0.009,-0.01 -0.02,-0 -0.029,-0.01 -0.008,-0 -0.01,-0.017 -0.02,-0.021 l -1.728,-0.766 c -0.009,-0 -0.017,0 -0.025,-10e-4 -0.009,-0 -0.012,-0.012 -0.021,-0.014 l -2.013,-0.4599 c -0.007,-0 -0.012,0 -0.019,0 -0.006,-10e-4 -0.01,-0.01 -0.017,-0.01 l -2.144,-0.175 c -0.008,-10e-4 -0.013,0.01 -0.021,0.01 -0.008,0 -0.013,-0.01 -0.021,-0.01 l -1.128,0.093 11.504,-6.639 -0.165,0.724 c -0.002,0.011 0.006,0.019 0.005,0.029 -10e-4,0.01 -0.011,0.016 -0.011,0.026 v 4.047 c 0,0.011 0.01,0.018 0.012,0.028 0.001,0.01 -0.008,0.019 -0.005,0.029 l 0.284,1.226 c 0.004,0.019 0.021,0.029 0.029,0.046 0.006,0.014 0,0.028 0.009,0.041 l 0.81,1.159 c 0.007,0.01 0.021,0.01 0.03,0.016 0.011,0.013 0.011,0.031 0.024,0.042 l 1.312,0.984 c 0.01,0.01 0.021,0 0.032,0.011 0.007,0 0.009,0.014 0.017,0.018 l 1.728,0.766 c 0.012,0.01 0.023,0 0.035,0.01 0.005,10e-4 0.006,0.01 0.011,0.01 l 2.013,0.459 c 0.011,0 0.021,0 0.032,0 10e-4,0 0.002,0 0.003,0 l 2.144,0.175 c 0.007,0 0.014,10e-4 0.021,10e-4 0.007,0 0.014,0 0.021,-10e-4 l 2.122,-0.175 c 0.001,0 0.002,-10e-4 0.003,-0 0.012,-0 0.022,-0 0.033,-0 l 1.969,-0.459 c 0.005,-10e-4 0.006,-0.01 0.011,-0.01 0.012,-0 0.023,-0 0.034,-0.01 l 1.729,-0.766 c 0.008,-0 0.01,-0.014 0.017,-0.018 0.011,-0.01 0.022,-0 0.032,-0.011 l 1.312,-0.984 c 0.014,-0.011 0.014,-0.029 0.024,-0.042 0.009,-0.01 0.023,-0.01 0.03,-0.016 l 0.809,-1.159 c 0.009,-0.012 0.003,-0.027 0.009,-0.04 0.009,-0.017 0.024,-0.027 0.029,-0.046 l 0.285,-1.226 c 0.003,-0.01 -0.006,-0.019 -0.005,-0.029 0.002,-0.01 0.012,-0.017 0.012,-0.028 v -4.047 c 0,-0.01 -0.01,-0.017 -0.011,-0.026 -0.001,-0.01 0.007,-0.019 0.005,-0.029 l -0.167,-0.731 11.508,6.6461 -1.131,-0.093 c -0.008,-10e-4 -0.013,0.01 -0.021,0.01 -0.008,0 -0.013,-0.01 -0.021,-0.01 l -2.144,0.175 c -0.007,0 -0.01,0.01 -0.017,0.01 -0.007,0 -0.012,-0 -0.019,-0 l -2.013,0.4601 c -0.009,0 -0.012,0.012 -0.021,0.014 -0.009,0 -0.017,-0 -0.025,10e-4 l -1.728,0.766 c -0.01,0 -0.011,0.016 -0.021,0.021 -0.009,0.01 -0.02,10e-4 -0.028,0.01 l -1.312,0.984 c -0.012,0.01 -0.011,0.024 -0.021,0.034 -0.01,0.01 -0.025,0.01 -0.033,0.021 l -0.81,1.138 c -0.012,0.017 -0.005,0.037 -0.013,0.055 -0.007,0.016 -0.025,0.024 -0.028,0.042 l -0.24,1.246 c -0.002,0.01 0.006,0.015 0.005,0.024 -0.001,0.01 -0.01,0.014 -0.01,0.023 v 4.025 c 0,0.01 0.009,0.015 0.01,0.023 0.001,0.01 -0.007,0.016 -0.005,0.024 l 0.24,1.247 c 0.004,0.021 0.021,0.033 0.03,0.051 0.007,0.015 0.001,0.032 0.011,0.046 l 0.81,1.138 c 0.008,0.01 0.021,0.01 0.03,0.016 0.011,0.012 0.011,0.03 0.023,0.04 l 1.312,0.984 c 0.01,0.01 0.021,0 0.032,0.011 0.008,0 0.009,0.014 0.017,0.018 l 1.728,0.766 c 0.012,0.01 0.023,0 0.035,0.01 0.004,10e-4 0.006,0.01 0.011,0.01 l 2.013,0.459 c 0.011,0 0.021,0 0.031,0 0.002,0 0.002,0 0.004,0 l 2.144,0.175 c 0.007,0 0.014,10e-4 0.021,10e-4 0.007,0 0.014,0 0.021,-10e-4 l 2.122,-0.175 c 0.001,0 0.002,-10e-4 0.003,-0 0.012,-9e-4 0.022,-9e-4 0.033,-0 l 1.969,-0.459 c 0.005,-9e-4 0.007,-0.01 0.011,-0.01 0.012,-0 0.023,-0 0.034,-0.01 l 1.729,-0.766 c 0.008,-0 0.009,-0.014 0.017,-0.018 0.011,-0.01 0.022,-0 0.032,-0.011 l 1.312,-0.984 c 0.013,-0.01 0.013,-0.028 0.023,-0.04 0.009,-0.01 0.022,-0 0.03,-0.016 l 0.81,-1.138 c 0.009,-0.012 0.003,-0.027 0.009,-0.04 0.009,-0.017 0.025,-0.027 0.03,-0.046 l 0.306,-1.247 c 0.003,-0.011 -0.006,-0.021 -0.005,-0.031 0.001,-0.01 0.012,-0.018 0.012,-0.028 v -4.0249 c 0,-0.011 -0.011,-0.018 -0.012,-0.028 -10e-4,-0.01 0.008,-0.02 0.005,-0.031 l -0.179,-0.7289 11.471,6.625 -1.102,-0.091 c -0.008,-0 -0.013,0.01 -0.021,0.01 -0.008,0 -0.013,-0.01 -0.021,-0.01 l -2.145,0.175 c -0.007,0 -0.01,0.01 -0.017,0.01 -0.007,10e-4 -0.012,-0.01 -0.019,-0 l -2.012,0.46 c -0.01,0 -0.013,0.012 -0.021,0.016 -0.01,0 -0.019,-0 -0.027,0 l -1.663,0.7659 c -0.009,0 -0.01,0.015 -0.019,0.02 -0.009,0 -0.02,10e-4 -0.027,0.01 l -1.308,0.981 c -0.012,0.01 -0.011,0.024 -0.021,0.035 -0.01,0.01 -0.024,0.01 -0.032,0.02 l -0.831,1.159 c -0.011,0.015 -0.004,0.033 -0.012,0.049 -0.007,0.016 -0.025,0.023 -0.029,0.041 l -0.284,1.247 c -0.003,0.011 0.006,0.019 0.005,0.029 -0.001,0.01 -0.011,0.016 -0.011,0.026 v 4.0241 c 0,0.01 0.01,0.017 0.011,0.026 0.001,0.01 -0.008,0.019 -0.005,0.029 l 0.284,1.247 c 0.005,0.021 0.022,0.032 0.032,0.051 0.006,0.013 0.001,0.029 0.01,0.041 l 0.831,1.1379 c 0.007,0.01 0.021,0.01 0.029,0.015 0.011,0.012 0.01,0.028 0.022,0.038 l 1.312,0.984 c 0.009,0.01 0.021,0.01 0.03,0.01 0.007,0 0.008,0.014 0.016,0.017 l 1.663,0.7659 c 0.012,0 0.024,0 0.037,0.01 0.005,0 0.007,0.01 0.012,0.01 l 2.012,0.459 c 0.011,0 0.021,0 0.032,0 0.001,0 0.002,0 0.003,0 l 2.145,0.175 c 0.007,0 0.014,10e-4 0.021,10e-4 0.007,0 0.014,0 0.021,-10e-4 l 2.121,-0.175 c 10e-4,0 0.002,-0 0.003,-0 0.012,-10e-4 0.022,-10e-4 0.033,-0 l 1.969,-0.459 c 0.005,-10e-4 0.006,-0.01 0.011,-0.01 0.012,-0 0.023,-0 0.034,-0.01 l 1.729,-0.766 c 0.008,-0 0.01,-0.014 0.017,-0.018 0.011,-0.01 0.022,-0 0.032,-0.011 l 1.312,-0.984 c 0.013,-0.01 0.012,-0.026 0.022,-0.038 0.008,-0.01 0.022,-0.01 0.029,-0.015 l 0.831,-1.138 c 0.009,-0.012 0.004,-0.028 0.01,-0.041 0.01,-0.019 0.027,-0.03 0.032,-0.051 l 0.284,-1.247 c 0.002,-0.011 -0.006,-0.019 -0.005,-0.029 0.001,-0.01 0.011,-0.016 0.011,-0.026 v -4.024 c 0,-0.01 -0.01,-0.017 -0.011,-0.026 -10e-4,-0.01 0.007,-0.019 0.005,-0.029 l -0.168,-0.735 9.088,5.249 -36.07,20.848 -54.792,-31.632 9.108,-5.257 z m 27.212,-15.747 c -0.007,0 -0.011,0.01 -0.018,0.01 -0.007,0 -0.011,-0.01 -0.018,-0.01 l -1.111,0.08 1.126,-0.645 1.116,0.645 z m -2.123,0.651 2.105,-0.15 2.085,0.15 0.031,0.01 5.595,3.231 0.258,1.1279 -0.262,1.143 -0.757,1.065 -1.26,0.944 -1.679,0.744 -1.931,0.45 -2.081,0.171 -2.104,-0.171 -1.972,-0.45 -1.679,-0.744 -1.26,-0.944 -0.756,-1.065 -0.261,-1.143 0.255,-1.121 2.392,-1.38 3.244,-1.8579 z m 28.475,14.015 0.278,1.1371 -0.278,1.116 -0.761,1.0689 -1.26,0.944 -1.682,0.745 -1.924,0.47 -2.085,0.15 -2.106,-0.15 -1.969,-0.47 -1.68,-0.745 -1.26,-0.944 -0.757,-1.063 -0.221,-1.124 0.221,-1.143 0.757,-1.063 1.26,-0.944 1.679,-0.744 1.971,-0.451 2.105,-0.171 2.081,0.171 0.119,0.028 z m 18.681,10.789 0.258,1.133 -0.259,1.118 -0.779,1.087 -1.258,0.922 -1.686,0.747 -1.924,0.471 -2.084,0.1491 -2.106,-0.1491 -1.969,-0.471 -1.617,-0.7449 -1.26,-0.9241 -0.779,-1.087 -0.259,-1.118 0.261,-1.145 0.777,-1.084 1.264,-0.948 1.613,-0.743 1.97,-0.45 2.105,-0.171 2.08,0.171 0.079,0.019 z"
     id="path3" /></svg>
