<?xml version="1.0" encoding="UTF-8" standalone="no"?>
<svg
   version="1.1"
   x="0px"
   y="0px"
   viewBox="0 0 100 125"
   enable-background="new 0 0 100 100"
   xml:space="preserve"
   id="svg4"
   sodipodi:docname="noun-lego-brick.svg"
   inkscape:version="1.3.2 (091e20e, 2023-11-25)"
   xmlns:inkscape="http://www.inkscape.org/namespaces/inkscape"
   xmlns:sodipodi="http://sodipodi.sourceforge.net/DTD/sodipodi-0.dtd"
   xmlns="http://www.w3.org/2000/svg"
   xmlns:svg="http://www.w3.org/2000/svg"><defs
     id="defs4" /><sodipodi:namedview
     id="namedview4"
     pagecolor="#ffffff"
     bordercolor="#000000"
     borderopacity="0.25"
     inkscape:showpageshadow="2"
     inkscape:pageopacity="0.0"
     inkscape:pagecheckerboard="0"
     inkscape:deskcolor="#d1d1d1"
     inkscape:zoom="1.888"
     inkscape:cx="49.788136"
     inkscape:cy="66.207627"
     inkscape:window-width="1312"
     inkscape:window-height="449"
     inkscape:window-x="0"
     inkscape:window-y="38"
     inkscape:window-maximized="0"
     inkscape:current-layer="svg4" /><path
     fill="#000000"
     d="M31.828,43.687l0.284,1.247c0.005,0.02,0.021,0.031,0.03,0.048c0.007,0.013,0.001,0.029,0.01,0.041  l0.81,1.138c0.007,0.01,0.022,0.007,0.03,0.016c0.011,0.012,0.01,0.03,0.023,0.04l1.312,0.984c0.01,0.007,0.021,0.005,0.032,0.011  c0.007,0.004,0.009,0.014,0.017,0.018l1.728,0.766c0.012,0.005,0.023,0.004,0.035,0.007c0.005,0.001,0.006,0.007,0.011,0.008  l2.013,0.459c0.011,0.002,0.021,0.002,0.032,0.003c0.001,0,0.002,0.002,0.003,0.002l2.144,0.175c0.007,0,0.014,0.001,0.021,0.001  s0.014,0,0.021-0.001l2.122-0.175c0.001,0,0.002-0.001,0.003-0.002c0.012-0.001,0.022-0.001,0.033-0.003l1.969-0.459  c0.005-0.001,0.006-0.006,0.011-0.008c0.012-0.003,0.023-0.002,0.034-0.007l1.729-0.766c0.008-0.003,0.01-0.014,0.017-0.018  c0.011-0.006,0.022-0.004,0.032-0.011l1.312-0.984c0.014-0.01,0.013-0.028,0.023-0.04c0.008-0.009,0.023-0.005,0.03-0.016  l0.809-1.138c0.009-0.012,0.003-0.028,0.01-0.042c0.009-0.017,0.025-0.028,0.03-0.048l0.285-1.247  c0.002-0.011-0.006-0.019-0.005-0.029c0.001-0.01,0.011-0.016,0.011-0.026v-4.024c0-0.01-0.01-0.017-0.011-0.026  c-0.001-0.01,0.007-0.019,0.005-0.029l-0.285-1.247c-0.004-0.017-0.021-0.024-0.028-0.04s-0.001-0.033-0.011-0.047l-0.809-1.159  c-0.008-0.012-0.023-0.011-0.033-0.021s-0.01-0.027-0.021-0.036l-1.312-0.984c-0.009-0.006-0.02-0.002-0.029-0.007  c-0.008-0.005-0.01-0.017-0.02-0.021l-1.729-0.766c-0.008-0.003-0.017,0.002-0.024,0c-0.009-0.003-0.012-0.013-0.021-0.015  l-1.969-0.46c-0.007-0.001-0.013,0.004-0.02,0.003c-0.006-0.001-0.01-0.008-0.017-0.009l-2.122-0.175  c-0.008-0.001-0.013,0.007-0.021,0.007c-0.008,0-0.013-0.008-0.021-0.007l-2.144,0.175c-0.007,0-0.01,0.008-0.017,0.009  s-0.012-0.005-0.019-0.003l-2.013,0.46c-0.009,0.002-0.012,0.012-0.021,0.015c-0.009,0.002-0.017-0.003-0.025,0l-1.728,0.766  c-0.01,0.004-0.012,0.016-0.02,0.021c-0.01,0.005-0.021,0.001-0.029,0.007L33.016,37c-0.012,0.009-0.012,0.025-0.021,0.036  s-0.025,0.01-0.033,0.021l-0.81,1.159c-0.011,0.015-0.004,0.033-0.011,0.048c-0.007,0.015-0.024,0.022-0.028,0.039l-0.284,1.247  c-0.002,0.011,0.006,0.019,0.005,0.029c-0.001,0.01-0.011,0.016-0.011,0.026v4.024c0,0.01,0.01,0.017,0.011,0.026  C31.834,43.667,31.826,43.676,31.828,43.687z M33.348,37.377l1.26-0.944l1.679-0.744l1.972-0.451l2.104-0.171l2.081,0.171  l1.931,0.451l1.679,0.744l1.26,0.944l0.757,1.085l0.262,1.146l-0.261,1.119l-0.758,1.087l-1.256,0.921l-1.686,0.747l-1.924,0.471  l-2.085,0.149l-2.105-0.149l-1.971-0.472l-1.683-0.746l-1.256-0.921l-0.759-1.087l-0.26-1.119l0.261-1.146L33.348,37.377z"
     id="path1"
     inkscape:export-filename="lego-brick.svg"
     inkscape:export-xdpi="96"
     inkscape:export-ydpi="96" /><path
     fill="#000000"
     d="M50.53,54.463l0.24,1.226c0.004,0.021,0.021,0.032,0.03,0.051c0.007,0.015,0.001,0.032,0.011,0.046  l0.81,1.139c0.008,0.01,0.021,0.006,0.03,0.016c0.011,0.012,0.011,0.029,0.023,0.039l1.312,0.984  c0.01,0.007,0.021,0.005,0.032,0.011c0.008,0.004,0.009,0.015,0.017,0.018l1.728,0.766c0.01,0.005,0.021,0.003,0.031,0.007  c0.004,0.001,0.005,0.006,0.01,0.008l2.013,0.502c0.014,0.004,0.027,0.004,0.041,0.006c0.002,0,0.003,0.002,0.004,0.002l2.144,0.131  c0.006,0,0.011,0,0.016,0s0.01,0,0.016,0l2.122-0.131c0.002,0,0.003-0.002,0.004-0.002c0.015-0.002,0.028-0.002,0.042-0.006  l1.969-0.503c0.004-0.001,0.006-0.006,0.01-0.007c0.01-0.004,0.021-0.002,0.03-0.007l1.729-0.766  c0.008-0.003,0.009-0.014,0.017-0.018c0.011-0.006,0.022-0.004,0.032-0.011l1.312-0.984c0.013-0.01,0.013-0.027,0.023-0.039  c0.009-0.01,0.022-0.006,0.03-0.016l0.81-1.139c0.009-0.012,0.003-0.026,0.009-0.039c0.009-0.017,0.024-0.026,0.029-0.045  l0.306-1.226c0.003-0.011-0.006-0.021-0.005-0.03c0.002-0.012,0.013-0.019,0.013-0.03v-4.047c0-0.012-0.011-0.019-0.013-0.03  c-0.001-0.011,0.008-0.02,0.005-0.031l-0.306-1.225c-0.004-0.016-0.021-0.022-0.027-0.037c-0.006-0.015,0-0.032-0.01-0.045  l-0.81-1.159c-0.009-0.012-0.023-0.011-0.033-0.021c-0.011-0.01-0.01-0.027-0.021-0.036L64.991,46.8  c-0.009-0.006-0.02-0.002-0.028-0.007c-0.01-0.005-0.011-0.017-0.021-0.021l-1.729-0.766c-0.008-0.003-0.017,0.002-0.024,0  c-0.009-0.003-0.012-0.013-0.021-0.015l-1.969-0.46c-0.007-0.001-0.013,0.004-0.02,0.003s-0.01-0.008-0.017-0.009l-2.122-0.175  c-0.008,0-0.013,0.007-0.021,0.007s-0.013-0.007-0.021-0.007l-2.144,0.175c-0.007,0-0.01,0.007-0.017,0.009  c-0.007,0.001-0.012-0.005-0.019-0.003l-2.013,0.46c-0.009,0.002-0.012,0.012-0.021,0.015c-0.009,0.002-0.018-0.003-0.025,0  l-1.728,0.766c-0.01,0.004-0.011,0.016-0.021,0.021c-0.009,0.005-0.02,0.001-0.028,0.007l-1.312,0.984  c-0.012,0.009-0.011,0.025-0.021,0.036c-0.01,0.01-0.024,0.01-0.033,0.021L50.811,49c-0.011,0.015-0.004,0.034-0.012,0.051  c-0.007,0.017-0.024,0.026-0.028,0.044l-0.24,1.225c-0.002,0.009,0.006,0.016,0.005,0.025c-0.001,0.009-0.01,0.014-0.01,0.023v4.047  c0,0.009,0.009,0.015,0.01,0.023S50.528,54.454,50.53,54.463z M52.007,48.161l1.26-0.944l1.679-0.744l1.971-0.451l2.105-0.171  l2.081,0.171l1.931,0.451l1.679,0.744l1.26,0.944l0.761,1.089l0.279,1.118l-0.279,1.119l-0.761,1.089l-1.259,0.944l-1.68,0.724  l-1.927,0.47l-2.085,0.15l-2.106-0.15l-1.972-0.471l-1.678-0.723l-1.259-0.944l-0.757-1.083l-0.22-1.125l0.22-1.124L52.007,48.161z"
     id="path2" /><path
     fill="#000000"
     d="M1.979,32.847v24.26c0,0.357,0.19,0.688,0.5,0.866l56.043,32.331c0.155,0.089,0.327,0.134,0.5,0.134  s0.346-0.045,0.5-0.134l37.319-21.547c0.31-0.179,0.5-0.509,0.5-0.866v-24.26c0-0.357-0.19-0.688-0.5-0.866l-55.978-32.33  c-0.311-0.18-0.689-0.18-0.998-0.002L2.479,31.98C2.17,32.159,1.979,32.489,1.979,32.847z M3.979,56.529V33.712l54.793,31.631  v22.795L3.979,56.529z M19.557,24.475l2.081-0.171l2.104,0.171l1.972,0.451l1.679,0.744l1.26,0.944l0.758,1.065l0.261,1.143  l-0.259,1.118l-0.76,1.067l-1.26,0.944l-1.68,0.745l-1.969,0.47l-2.106,0.15l-2.085-0.15l-1.924-0.47l-1.682-0.745l-1.26-0.944  l-0.759-1.067l-0.26-1.118l0.261-1.14l5.51-3.18L19.557,24.475z M13.168,28.766c-0.002,0.011,0.006,0.019,0.005,0.029  c-0.001,0.01-0.011,0.016-0.011,0.026v4.025c0,0.01,0.01,0.017,0.011,0.026c0.001,0.01-0.007,0.019-0.005,0.029l0.285,1.247  c0.005,0.02,0.021,0.031,0.03,0.048c0.007,0.014,0.001,0.029,0.01,0.042l0.809,1.138c0.007,0.01,0.022,0.007,0.03,0.016  c0.011,0.012,0.01,0.03,0.023,0.04l1.312,0.984c0.01,0.007,0.021,0.005,0.032,0.011c0.007,0.004,0.009,0.014,0.017,0.018  l1.729,0.766c0.011,0.005,0.022,0.004,0.034,0.007c0.005,0.002,0.006,0.007,0.011,0.008l1.969,0.459  c0.011,0.002,0.021,0.002,0.033,0.003c0.001,0,0.002,0.002,0.003,0.002l2.122,0.175c0.007,0,0.014,0.001,0.021,0.001  s0.014,0,0.021-0.001l2.144-0.175c0.001,0,0.002-0.002,0.003-0.002c0.011-0.001,0.021-0.001,0.032-0.003l2.013-0.459  c0.005-0.001,0.006-0.006,0.011-0.008c0.012-0.003,0.023-0.002,0.035-0.007l1.728-0.766c0.008-0.003,0.01-0.014,0.017-0.018  c0.011-0.006,0.022-0.004,0.032-0.011l1.312-0.984c0.014-0.01,0.013-0.028,0.023-0.04c0.008-0.009,0.023-0.005,0.03-0.016  l0.81-1.138c0.009-0.012,0.003-0.028,0.01-0.041c0.009-0.018,0.025-0.028,0.03-0.048l0.284-1.247  c0.002-0.011-0.006-0.019-0.005-0.029c0.001-0.01,0.011-0.016,0.011-0.026v-4.025c0-0.01-0.01-0.017-0.011-0.026  c-0.001-0.01,0.007-0.019,0.005-0.029l-0.284-1.246c-0.004-0.018-0.021-0.025-0.029-0.041c-0.007-0.016,0-0.034-0.011-0.048  l-0.81-1.138c-0.009-0.011-0.023-0.011-0.033-0.021s-0.009-0.025-0.021-0.034l-1.312-0.984c-0.009-0.006-0.02-0.002-0.029-0.007  c-0.008-0.005-0.01-0.017-0.02-0.021l-1.728-0.766c-0.009-0.004-0.017,0.002-0.025-0.001c-0.009-0.002-0.012-0.012-0.021-0.014  l-2.013-0.46c-0.007-0.001-0.012,0.004-0.019,0.003c-0.006-0.001-0.01-0.008-0.017-0.009l-2.144-0.175  c-0.008-0.001-0.013,0.007-0.021,0.007s-0.013-0.007-0.021-0.007l-1.128,0.093l11.504-6.639l-0.165,0.724  c-0.002,0.011,0.006,0.019,0.005,0.029c-0.001,0.01-0.011,0.016-0.011,0.026v4.047c0,0.011,0.01,0.018,0.012,0.028  c0.001,0.01-0.008,0.019-0.005,0.029l0.284,1.226c0.004,0.019,0.021,0.029,0.029,0.046c0.006,0.014,0,0.028,0.009,0.041l0.81,1.159  c0.007,0.01,0.021,0.007,0.03,0.016c0.011,0.013,0.011,0.031,0.024,0.042l1.312,0.984c0.01,0.007,0.021,0.005,0.032,0.011  c0.007,0.004,0.009,0.014,0.017,0.018l1.728,0.766c0.012,0.005,0.023,0.004,0.035,0.007c0.005,0.001,0.006,0.007,0.011,0.008  l2.013,0.459c0.011,0.002,0.021,0.002,0.032,0.003c0.001,0,0.002,0.002,0.003,0.002l2.144,0.175c0.007,0,0.014,0.001,0.021,0.001  s0.014,0,0.021-0.001l2.122-0.175c0.001,0,0.002-0.001,0.003-0.002c0.012-0.001,0.022-0.001,0.033-0.003l1.969-0.459  c0.005-0.001,0.006-0.006,0.011-0.008c0.012-0.003,0.023-0.002,0.034-0.007l1.729-0.766c0.008-0.003,0.01-0.014,0.017-0.018  c0.011-0.006,0.022-0.004,0.032-0.011l1.312-0.984c0.014-0.011,0.014-0.029,0.024-0.042c0.009-0.009,0.023-0.005,0.03-0.016  l0.809-1.159c0.009-0.012,0.003-0.027,0.009-0.04c0.009-0.017,0.024-0.027,0.029-0.046l0.285-1.226  c0.003-0.01-0.006-0.019-0.005-0.029c0.002-0.01,0.012-0.017,0.012-0.028v-4.047c0-0.01-0.01-0.017-0.011-0.026  c-0.001-0.01,0.007-0.019,0.005-0.029l-0.167-0.731l11.508,6.646l-1.131-0.093c-0.008-0.001-0.013,0.007-0.021,0.007  s-0.013-0.007-0.021-0.007l-2.144,0.175c-0.007,0-0.01,0.007-0.017,0.009c-0.007,0.001-0.012-0.005-0.019-0.003l-2.013,0.46  c-0.009,0.002-0.012,0.012-0.021,0.014c-0.009,0.003-0.017-0.003-0.025,0.001l-1.728,0.766c-0.01,0.004-0.011,0.016-0.021,0.021  c-0.009,0.005-0.02,0.001-0.028,0.007l-1.312,0.984c-0.012,0.009-0.011,0.024-0.021,0.034s-0.025,0.009-0.033,0.021l-0.81,1.138  c-0.012,0.017-0.005,0.037-0.013,0.055c-0.007,0.016-0.025,0.024-0.028,0.042l-0.24,1.246c-0.002,0.008,0.006,0.015,0.005,0.024  s-0.01,0.014-0.01,0.023v4.025c0,0.009,0.009,0.015,0.01,0.023s-0.007,0.016-0.005,0.024l0.24,1.247  c0.004,0.021,0.021,0.033,0.03,0.051c0.007,0.015,0.001,0.032,0.011,0.046l0.81,1.138c0.008,0.01,0.021,0.007,0.03,0.016  c0.011,0.012,0.011,0.03,0.023,0.04l1.312,0.984c0.01,0.007,0.021,0.005,0.032,0.011c0.008,0.004,0.009,0.014,0.017,0.018  l1.728,0.766c0.012,0.005,0.023,0.004,0.035,0.007c0.004,0.001,0.006,0.007,0.011,0.008l2.013,0.459  c0.011,0.002,0.021,0.002,0.031,0.003c0.002,0,0.002,0.002,0.004,0.002l2.144,0.175c0.007,0,0.014,0.001,0.021,0.001  s0.014,0,0.021-0.001l2.122-0.175c0.001,0,0.002-0.001,0.003-0.002c0.012-0.001,0.022-0.001,0.033-0.003l1.969-0.459  c0.005-0.001,0.007-0.006,0.011-0.008c0.012-0.003,0.023-0.002,0.034-0.007l1.729-0.766c0.008-0.003,0.009-0.014,0.017-0.018  c0.011-0.006,0.022-0.004,0.032-0.011l1.312-0.984c0.013-0.01,0.013-0.028,0.023-0.04c0.009-0.009,0.022-0.005,0.03-0.016  l0.81-1.138c0.009-0.012,0.003-0.027,0.009-0.04c0.009-0.017,0.025-0.027,0.03-0.046l0.306-1.247  c0.003-0.011-0.006-0.021-0.005-0.031s0.012-0.018,0.012-0.028v-4.025c0-0.011-0.011-0.018-0.012-0.028s0.008-0.02,0.005-0.031  l-0.179-0.729l11.471,6.625l-1.102-0.091c-0.008-0.001-0.013,0.007-0.021,0.007c-0.008,0-0.013-0.008-0.021-0.007l-2.145,0.175  c-0.007,0-0.01,0.008-0.017,0.009s-0.012-0.005-0.019-0.003l-2.012,0.46c-0.01,0.002-0.013,0.012-0.021,0.016  c-0.01,0.003-0.019-0.003-0.027,0.001l-1.663,0.766c-0.009,0.004-0.01,0.015-0.019,0.02s-0.02,0.001-0.027,0.007L70.399,37  c-0.012,0.009-0.011,0.024-0.021,0.035c-0.01,0.009-0.024,0.009-0.032,0.02l-0.831,1.159c-0.011,0.015-0.004,0.033-0.012,0.049  c-0.007,0.016-0.025,0.023-0.029,0.041l-0.284,1.247c-0.003,0.011,0.006,0.019,0.005,0.029c-0.001,0.01-0.011,0.016-0.011,0.026  v4.024c0,0.01,0.01,0.017,0.011,0.026c0.001,0.01-0.008,0.019-0.005,0.029l0.284,1.247c0.005,0.021,0.022,0.032,0.032,0.051  c0.006,0.013,0.001,0.029,0.01,0.041l0.831,1.138c0.007,0.01,0.021,0.006,0.029,0.015c0.011,0.012,0.01,0.028,0.022,0.038  l1.312,0.984c0.009,0.007,0.021,0.005,0.03,0.01c0.007,0.004,0.008,0.014,0.016,0.017l1.663,0.766  c0.012,0.005,0.024,0.004,0.037,0.008c0.005,0.001,0.007,0.007,0.012,0.008l2.012,0.459c0.011,0.002,0.021,0.002,0.032,0.003  c0.001,0,0.002,0.002,0.003,0.002l2.145,0.175c0.007,0,0.014,0.001,0.021,0.001s0.014,0,0.021-0.001l2.121-0.175  c0.001,0,0.002-0.001,0.003-0.002c0.012-0.001,0.022-0.001,0.033-0.003l1.969-0.459c0.005-0.001,0.006-0.006,0.011-0.008  c0.012-0.003,0.023-0.002,0.034-0.007l1.729-0.766c0.008-0.003,0.01-0.014,0.017-0.018c0.011-0.006,0.022-0.004,0.032-0.011  l1.312-0.984c0.013-0.01,0.012-0.026,0.022-0.038c0.008-0.008,0.022-0.005,0.029-0.015l0.831-1.138  c0.009-0.012,0.004-0.028,0.01-0.041c0.01-0.019,0.027-0.03,0.032-0.051l0.284-1.247c0.002-0.011-0.006-0.019-0.005-0.029  c0.001-0.01,0.011-0.016,0.011-0.026v-4.024c0-0.01-0.01-0.017-0.011-0.026c-0.001-0.01,0.007-0.019,0.005-0.029l-0.168-0.735  l9.088,5.249l-36.07,20.848L4.229,33.28l9.108-5.257L13.168,28.766z M40.38,13.019c-0.007,0-0.011,0.006-0.018,0.006  s-0.011-0.006-0.018-0.006l-1.111,0.08l1.126-0.645l1.116,0.645L40.38,13.019z M38.257,13.67l2.105-0.15l2.085,0.15l0.031,0.008  l5.595,3.231l0.258,1.128l-0.262,1.143l-0.757,1.065l-1.26,0.944l-1.679,0.744l-1.931,0.45l-2.081,0.171l-2.104-0.171l-1.972-0.45  l-1.679-0.744l-1.26-0.944L32.59,19.18l-0.261-1.143l0.255-1.121l2.392-1.38l3.244-1.858L38.257,13.67z M66.732,27.685l0.278,1.137  l-0.278,1.116l-0.761,1.069l-1.26,0.944l-1.682,0.745l-1.924,0.47l-2.085,0.15l-2.106-0.15l-1.969-0.47l-1.68-0.745l-1.26-0.944  l-0.757-1.063l-0.221-1.124l0.221-1.143l0.757-1.063l1.26-0.944l1.679-0.744l1.971-0.451l2.105-0.171l2.081,0.171l0.119,0.028  L66.732,27.685z M85.413,38.474l0.258,1.133l-0.259,1.118l-0.779,1.087l-1.258,0.922l-1.686,0.747l-1.924,0.471l-2.084,0.149  l-2.106-0.149l-1.969-0.471l-1.617-0.745l-1.26-0.924l-0.779-1.087l-0.259-1.118l0.261-1.145l0.777-1.084l1.264-0.948l1.613-0.743  l1.97-0.45l2.105-0.171l2.08,0.171l0.079,0.019L85.413,38.474z"
     id="path3" /></svg>
